<svg id="Capa_1" enable-background="new 0 0 512 512" height="512" viewBox="0 0 512 512" width="512" xmlns="http://www.w3.org/2000/svg"><g><g><circle cx="346.909" cy="39.828" r="8.081"/><circle cx="314.584" cy="39.828" r="8.081"/><circle cx="282.259" cy="39.828" r="8.081"/><path d="m102.453 275.773c-4.143 0-7.5 3.358-7.5 7.5s3.357 7.5 7.5 7.5h68.69c4.143 0 7.5-3.358 7.5-7.5s-3.357-7.5-7.5-7.5z"/><path d="m41.845 327.138h129.299c4.143 0 7.5-3.358 7.5-7.5s-3.357-7.5-7.5-7.5h-129.299c-4.143 0-7.5 3.358-7.5 7.5s3.357 7.5 7.5 7.5z"/><path d="m41.845 363.504h129.299c4.143 0 7.5-3.358 7.5-7.5s-3.357-7.5-7.5-7.5h-129.299c-4.143 0-7.5 3.358-7.5 7.5s3.357 7.5 7.5 7.5z"/><path d="m41.845 399.869h129.299c4.143 0 7.5-3.358 7.5-7.5s-3.357-7.5-7.5-7.5h-129.299c-4.143 0-7.5 3.358-7.5 7.5s3.357 7.5 7.5 7.5z"/><path d="m41.845 436.234h129.299c4.143 0 7.5-3.358 7.5-7.5s-3.357-7.5-7.5-7.5h-129.299c-4.143 0-7.5 3.358-7.5 7.5s3.357 7.5 7.5 7.5z"/><path d="m41.845 472.599h129.299c4.143 0 7.5-3.358 7.5-7.5s-3.357-7.5-7.5-7.5h-129.299c-4.143 0-7.5 3.358-7.5 7.5s3.357 7.5 7.5 7.5z"/><path d="m344.884 144.771c4.143 0 7.5-3.358 7.5-7.5v-25.72c0-4.142-3.357-7.5-7.5-7.5h-303.035c-4.143 0-7.5 3.358-7.5 7.5v135.359c0 4.142 3.357 7.5 7.5 7.5h303.035c4.143 0 7.5-3.358 7.5-7.5v-74.639c0-4.142-3.357-7.5-7.5-7.5s-7.5 3.358-7.5 7.5v67.139h-288.035v-120.359h288.035v18.22c0 4.142 3.357 7.5 7.5 7.5z"/><path d="m511.044 128.966c-1.916-7.147-6.5-13.121-12.908-16.821l-20.995-12.122c-13.231-7.639-30.207-3.088-37.843 10.14l-10.894 18.87c-2.163-.359-4.394-.271-6.576.313-4.02 1.077-7.38 3.656-9.461 7.26l-8.082 13.997c-2.081 3.604-2.634 7.803-1.557 11.823.584 2.181 1.624 4.158 3.017 5.852l-19.012 32.93v-173.502c0-15.275-12.428-27.703-27.704-27.703h-331.326c-15.275.001-27.703 12.428-27.703 27.703v96.345c0 4.142 3.357 7.5 7.5 7.5s7.5-3.358 7.5-7.5v-44.398h356.734v147.536l-28.051 48.585h-128.093c-4.143 0-7.5 3.358-7.5 7.5s3.357 7.5 7.5 7.5h119.433l-12.335 21.365h-107.098c-4.143 0-7.5 3.358-7.5 7.5s3.357 7.5 7.5 7.5h98.438l-12.335 21.365h-86.103c-4.143 0-7.5 3.358-7.5 7.5s3.358 7.5 7.5 7.5h77.442l-12.336 21.366h-65.106c-4.143 0-7.5 3.358-7.5 7.5s3.357 7.5 7.5 7.5h56.447l-12.335 21.365h-44.112c-4.143 0-7.5 3.358-7.5 7.5s3.357 7.5 7.5 7.5h37.679c-1.069 4.393-1.514 8.938-1.304 13.513l.359 7.852h-36.734c-4.143 0-7.5 3.358-7.5 7.5s3.357 7.5 7.5 7.5h37.42l.434 9.473c.155 3.384 1.258 6.569 3.121 9.246l-3.278 5.677h-225.587c-7.003 0-12.7-5.697-12.7-12.7v-325.245c0-4.142-3.357-7.5-7.5-7.5s-7.5 3.358-7.5 7.5v325.245c0 15.274 12.426 27.7 27.7 27.7h229.887c.008 0 .015.001.023.001s.015-.001.023-.001h101.401c15.274 0 27.7-12.426 27.7-27.7v-26.799c0-4.142-3.357-7.5-7.5-7.5s-7.5 3.358-7.5 7.5v26.799c0 7.003-5.697 12.7-12.7 12.7h-80.117c.068-.034.137-.063.204-.098l28.734-14.882c8.142-4.217 14.871-10.644 19.456-18.586l44.423-76.943v36.01c0 4.142 3.357 7.5 7.5 7.5s7.5-3.358 7.5-7.5v-61.99l87.99-152.403c.837.137 1.678.213 2.516.213 5.389 0 10.638-2.794 13.521-7.787l8.081-13.997c2.081-3.604 2.634-7.803 1.557-11.823-.584-2.182-1.624-4.158-3.016-5.852l10.894-18.869c3.7-6.409 4.682-13.875 2.767-21.023zm-483.341-113.963h331.327c7.005 0 12.704 5.699 12.704 12.703v36.946h-356.734v-36.946c0-7.004 5.698-12.703 12.703-12.703zm424.585 102.66c3.503-6.064 11.288-8.152 17.353-4.65l20.995 12.122c2.938 1.697 5.041 4.436 5.919 7.714.879 3.277.428 6.701-1.269 9.639l-10.392 18-42.998-24.825zm-137.967 338.267c-3.149 5.455-7.771 9.87-13.364 12.767l-28.734 14.882c-1.101.571-2.036.209-2.497-.057-.46-.266-1.241-.896-1.298-2.134l-1.479-32.325c-.288-6.292 1.225-12.502 4.374-17.957l146.912-254.458 42.998 24.825zm171.531-276.898-8.08 13.996c-.161.279-.52.374-.796.214l-59.487-34.345c-.277-.16-.373-.517-.213-.794l8.082-13.997c.161-.278.519-.372.794-.213l59.487 34.345c.278.16.373.516.213.794z"/></g></g></svg>