<svg id="Capa_1" enable-background="new 0 0 512 512" height="512" viewBox="0 0 512 512" width="512" xmlns="http://www.w3.org/2000/svg"><g><g><path d="m245.046 477.495c4.142 0 7.5-3.358 7.5-7.5s-3.358-7.5-7.5-7.5h-35.357c-4.142 0-7.5 3.358-7.5 7.5s3.358 7.5 7.5 7.5z"/><path d="m296.413 109.286h-113.075c-4.142 0-7.5 3.358-7.5 7.5s3.358 7.5 7.5 7.5h113.076c4.143 0 7.5-3.358 7.5-7.5s-3.358-7.5-7.501-7.5z"/><path d="m296.413 157.439h-199.466c-4.142 0-7.5 3.358-7.5 7.5s3.358 7.5 7.5 7.5h199.467c4.143 0 7.5-3.358 7.5-7.5s-3.358-7.5-7.501-7.5z"/><path d="m303.913 213.092c0-4.142-3.357-7.5-7.5-7.5h-199.466c-4.142 0-7.5 3.358-7.5 7.5s3.358 7.5 7.5 7.5h199.467c4.142 0 7.499-3.358 7.499-7.5z"/><path d="m96.947 253.746c-4.142 0-7.5 3.358-7.5 7.5s3.358 7.5 7.5 7.5h130.421c4.142 0 7.5-3.358 7.5-7.5s-3.358-7.5-7.5-7.5z"/><path d="m464.609 161.298-14.383-14.382c-5.993-5.995-15.696-5.996-21.691-.001l-16.204 16.204c-.164-.025-.327-.05-.491-.071v-34.51c0-4.142-3.357-7.5-7.5-7.5s-7.5 3.358-7.5 7.5v39.247c-.204.187-.417.358-.614.555l-209.486 209.485c-5.734 5.734-10.121 12.479-13.038 20.048l-15.222 39.506c-1.721 4.467-.646 9.54 2.739 12.925 3.403 3.402 8.479 4.451 12.925 2.739l39.506-15.222c7.568-2.917 14.313-7.303 20.048-13.038l163.141-163.14v29.563l-32.668 32.668c-2.929 2.929-2.929 7.678 0 10.606 2.929 2.929 7.677 2.929 10.607 0l22.061-22.06v112.672h-145.455c-4.142 0-7.5 3.358-7.5 7.5s3.358 7.5 7.5 7.5h145.456v34.225c0 12.508-10.176 22.684-22.684 22.684h-293.577c-12.508 0-22.684-10.176-22.684-22.684v-34.225h75.417c4.142 0 7.5-3.358 7.5-7.5s-3.358-7.5-7.5-7.5h-75.416v-361.15h338.943v29.51c0 4.142 3.357 7.5 7.5 7.5s7.5-3.358 7.5-7.5v-55.768c0-20.779-16.904-37.684-37.683-37.684h-293.577c-20.778 0-37.683 16.905-37.683 37.684v436.633c0 20.779 16.905 37.684 37.684 37.684h293.576c20.779 0 37.684-16.905 37.684-37.684v-176.897l31.342-31.342c8.001-8.002 8.001-20.952 0-28.953l-10.912-10.912 10.915-10.915c4.38-4.38 6.107-10.409 5.221-16.106l16.203-16.203c5.992-5.992 5.996-15.696 0-21.691zm-384.03-146.298h293.576c12.508 0 22.684 10.176 22.684 22.684v11.259h-338.943v-11.259c0-12.508 10.176-22.684 22.683-22.684zm127.678 408.824-33.443 12.886 12.886-33.443c1.246-3.233 2.866-6.256 4.819-9.056l24.794 24.794c-2.8 1.953-5.823 3.573-9.056 4.819zm224.317-176.092c2.138 2.138 2.139 5.601-.001 7.74l-20.734 20.734v-29.563l9.823-9.823zm.002-43.04-204.181 204.182-25.745-25.745 204.182-204.182c.939-.94 2.036-1.08 2.606-1.08 1.018 0 1.947.419 2.607 1.08l20.53 20.53c1.44 1.438 1.44 3.777.001 5.215zm21.425-32.31-13.653 13.653-14.86-14.86 13.653-13.654c.132-.132.345-.133.477 0l14.384 14.384c.131.131.135.341-.001.477z"/></g></g></svg>