<svg height="492pt" viewBox="-42 0 492 492.01376" width="492pt" xmlns="http://www.w3.org/2000/svg"><path d="m58.265625 181.984375c-5.6875-1.191406-10.652344-4.644531-13.746094-9.566406-3.097656-4.921875-4.0625-10.890625-2.671875-16.535157 1.644532-6.796874 7.476563-11.761718 14.449219-12.300781l-.238281-10.6875 2.898437 2.910157c4.3125 4.3125 10.871094 5.445312 16.378907 2.828124 1.460937-.691406 2.792968-1.621093 3.949218-2.75 1.148438-1.136718 2.09375-2.457031 2.800782-3.910156 1.742187-3.609375 4.980468-6.6875 8.699218-6.898437 15.601563-.871094 43.402344-2.289063 70.640625-21.3125 21.511719 22.496093 51.285157 35.21875 82.410157 35.222656h.992187l-.019531 4.597656c6.972656.535157 12.804687 5.503907 14.449218 12.300781.414063 1.675782.621094 3.394532.617188 5.121094 0 8.945313-5.558594 16.949219-13.9375 20.078125-1.226562.46875-2.496094.816407-3.789062 1.042969v.128906c0 36.039063-22.089844 70.050782-53.671876 83.550782-9.378906 4.042968-19.484374 6.132812-29.699218 6.140624h-16.449219c-10.214844-.007812-20.320313-2.097656-29.703125-6.140624-11.226562-4.878907-21.265625-12.128907-29.429688-21.25-15.449218-17.089844-24.074218-39.265626-24.226562-62.300782v-.128906c-.230469-.042969-.472656-.089844-.703125-.140625zm0 0" fill="#ffc9a4"/><path d="m254.746094 223.804688c3.53125 17.113281-.734375 34.914062-11.636719 48.570312-10.90625 13.65625-27.320313 21.753906-44.792969 22.097656l-.21875.652344-9.621094-3.261719v-26.058593c31.582032-13.5 53.671876-47.511719 53.671876-83.550782v-.128906c1.292968-.226562 2.5625-.574219 3.789062-1.042969zm0 0" fill="#cc7350"/><path d="m399.558594 332.953125c1.332031.910156 2.230468 2.328125 2.480468 3.925781.25 1.59375-.171874 3.222656-1.164062 4.496094l-51.679688 66.429688c-1.941406 2.5-5.523437 3-8.078124 1.128906-12.96875-9.53125-25.402344-19.773438-37.242188-30.679688l-43.796875 43.808594-20.402344 20.402344 2.609375 15.929687-18.199218-.339843 1.359374 17.167968-16.726562-1.800781-12.601562 12.589844-21.070313-4.207031-4.21875-21.082032 32.296875-32.300781 75.460938-75.457031c-10.90625-11.835938-21.148438-24.269532-30.679688-37.242188-1.875-2.554687-1.375-6.136718 1.128906-8.078125l66.53125-51.75c1.261719-.980469 2.871094-1.402343 4.449219-1.167969 1.582031.230469 3 1.101563 3.921875 2.40625 6.597656 9.351563 21.488281 29.699219 35.289062 43.5 13.390626 13.390626 31.550782 26.339844 40.332032 32.320313zm-45.800782 24.089844 11.800782-15.179688-12.722656-11.128906c-9.492188-8.304687-18.425782-17.234375-26.730469-26.730469l-11.128907-12.71875-15.167968 11.808594 18.539062 35.398438zm0 0" fill="#f8ec7d"/><path d="m161.425781 103.761719c-27.238281 19.023437-55.039062 20.441406-70.640625 21.3125-3.71875.210937-6.957031 3.289062-8.699218 6.898437-.707032 1.453125-1.652344 2.773438-2.800782 3.910156-1.15625 1.128907-2.488281 2.058594-3.949218 2.75-5.507813 2.617188-12.066407 1.484376-16.378907-2.828124l-2.898437-2.910157-.101563-32.382812c-.007812-33.839844 18.078125-65.101563 47.417969-81.960938 29.339844-16.863281 65.453125-16.75 94.6875.296875 29.234375 17.042969 47.125 48.417969 46.90625 82.253906l-.140625 37.882813h-.992187c-31.125-.003906-60.898438-12.726563-82.410157-35.222656zm0 0" fill="#e48e66"/><path d="m150.558594 329.683594 37.917968-37.820313 9.621094 3.261719 6.019532 2.039062 18.949218 6.417969-72.507812 70.5-.089844-.089843v-44.398438zm0 0" fill="#f8ec7d"/><path d="m150.558594 374.082031 72.507812-70.5 23.742188 8.050781c-.160156 1.453126.234375 2.914063 1.097656 4.089844 9.53125 12.972656 19.773438 25.40625 30.679688 37.242188l-75.460938 75.457031-.007812-.007813h-52.648438v-54.421874zm0 0" fill="#6fe3ff"/><path d="m150.46875 373.992188v54.421874h-144.460938v-68.03125c0-19.359374 12.335938-36.566406 30.667969-42.78125l41.371094-14.019531zm0 0" fill="#6fe3ff"/><path d="m112.625 291.863281v-26.058593c9.382812 4.042968 19.488281 6.132812 29.703125 6.140624h16.449219c10.214844-.007812 20.320312-2.097656 29.699218-6.140624v26.058593l-37.917968 37.820313-.089844-.089844zm0 0" fill="#efbd9c"/><path d="m99.285156 296.382812 13.339844-4.519531 37.84375 37.730469v44.398438l-72.421875-70.410157zm0 0" fill="#f8ec7d"/><path d="m58.96875 182.253906c.152344 23.035156 8.777344 45.210938 24.226562 62.300782 8.164063 9.121093 18.203126 16.371093 29.429688 21.25v26.058593l-13.339844 4.519531c-.085937 0-.171875-.007812-.257812-.019531-36.339844-3.148437-60.960938-38.449219-51.582032-73.699219l10.820313-40.679687c.230469.050781.472656.097656.703125.140625zm0 0" fill="#cc7350"/><g fill="#63316d"><path d="m189.566406 379.953125h-9.371094c-3.3125 0-6 2.6875-6 6s2.6875 6 6 6h9.371094c3.3125 0 6-2.6875 6-6s-2.6875-6-6-6zm0 0"/><path d="m402.933594 327.996094c-9.207032-6.273438-26.574219-18.714844-39.464844-31.601563-13.734375-13.738281-28.800781-34.449219-34.640625-42.730469-1.871094-2.640624-4.738281-4.398437-7.9375-4.871093-3.199219-.472657-6.453125.382812-9.007813 2.371093l-66.527343 51.742188c-.535157.421875-1.03125.890625-1.484375 1.398438l-23.714844-8.039063c29.746094-11.292969 46.894531-42.511719 40.464844-73.675781l-7.878906-38.207032c8.128906-4.996093 13.097656-13.839843 13.132812-23.378906.003906-2.203125-.257812-4.402344-.789062-6.539062-1.734376-7.335938-7.121094-13.261719-14.257813-15.6875l.140625-37.636719c.226562-35.988281-18.804688-69.347656-49.894531-87.46875-31.089844-18.121094-69.496094-18.234375-100.695313-.304687-31.199218 17.933593-50.429687 51.179687-50.421875 87.164062l.101563 32.351562v.144532l.128906 5.78125c-7.089844 2.449218-12.433594 8.355468-14.171875 15.652344-3.121094 12.703124 3.167969 25.839843 15.019531 31.378906l-9.386718 35.28125c-8.242188 30.90625 7.292968 63.207031 36.585937 76.0625l-43.476563 14.738281c-20.777343 7.027344-34.757812 26.527344-34.7499995 48.460937v68.03125c0 3.3125 2.6835935 6 5.9999995 6h182.648438l-22.066406 22.066407c-1.417969 1.417969-2.035156 3.453125-1.640625 5.421875l4.21875 21.078125c.476562 2.375 2.332031 4.230469 4.707031 4.707031l21.070312 4.210938c1.96875.390624 4-.222657 5.417969-1.640626l10.570313-10.5625 13.875 1.496094c1.777344.1875 3.546875-.421875 4.824218-1.664062 1.28125-1.246094 1.941407-2.996094 1.800782-4.777344l-.835938-10.574219 11.582032.214844c1.78125.035156 3.484374-.722656 4.648437-2.070313 1.164063-1.347656 1.671875-3.140624 1.382813-4.898437l-2.109376-12.890625 57.980469-57.992188c10.757813 9.652344 22 18.792969 33.5 27.238282 5.164063 3.816406 12.433594 2.796875 16.355469-2.289063l51.683594-66.4375c2.007812-2.582031 2.855468-5.878906 2.347656-9.109375-.507812-3.230468-2.328125-6.105468-5.03125-7.945312zm-302.949219-25.511719 11.039063-3.742187 33.4375 33.34375v27.707031l-55.203126-53.679688zm82.492187-13.109375-31.917968 31.839844-31.933594-31.839844v-15c7.679688 2.367188 15.667969 3.570312 23.703125 3.574219h16.449219c8.035156-.003907 16.023437-1.207031 23.699218-3.574219zm-26.007812 42.886719 33.609375-33.519531 21.769531 7.378906-55.378906 53.847656zm81.945312-63.625c-9.777343 12.277343-24.523437 19.550781-40.214843 19.835937l.007812.351563-3.730469-1.261719v-17.914062c24.707032-12 43.425782-36.011719 50.539063-63.320313l3.855469 18.683594c3.191406 15.375-.640625 31.371093-10.457032 43.625zm-150.535156-230.699219c25.386719-25.386719 63.589844-32.921875 96.710938-19.078125 33.125 13.84375 54.605468 46.324219 54.378906 82.222656l-.121094 31.777344c-25.367187-1.230469-49.503906-11.304687-68.214844-28.480469 13.738282-10.882812 25.675782-25.210937 35.546876-42.683594 1.574218-2.878906.542968-6.488281-2.316407-8.101562-2.855469-1.609375-6.476562-.632812-8.128906 2.203125-10.34375 18.296875-23.039063 32.785156-37.742187 43.050781-25.644532 17.90625-51.660157 19.355469-67.199219 20.21875l-.34375.019532c-5.585938.316406-10.859375 4.257812-13.757813 10.265624-.402344.828126-.9375 1.585938-1.589844 2.238282-.6875.664062-1.480468 1.214844-2.34375 1.625-3.214843 1.519531-7.035156.859375-9.554687-1.648438l-1.15625-1.160156-.089844-29.894531c-.0625-23.480469 9.269531-46.015625 25.921875-62.574219zm-40.652344 123.066406c0-1.246094.152344-2.484375.449219-3.695312 1.027344-4.3125 4.746094-7.453125 9.167969-7.75 2.636719-.242188 4.800781-2.179688 5.332031-4.769532 5.132813 1.867188 10.804688 1.601563 15.742188-.738281 2.066406-.984375 3.957031-2.304687 5.59375-3.90625 1.632812-1.617187 2.976562-3.5 3.980469-5.566406 1.027343-2.128906 2.652343-3.460937 3.628906-3.511719l.335937-.023437c14.941407-.828125 42.117188-2.355469 69.199219-19.570313 21.179688 20.273438 49.011719 32.144532 78.300781 33.398438.558594 2.550781 2.703125 4.445312 5.300781 4.6875 4.4375.292968 8.160157 3.453125 9.175782 7.78125.296875 1.199218.445312 2.429687.441406 3.664062-.023438 6.445313-4.03125 12.207032-10.070312 14.46875-.875.332032-1.78125.578125-2.699219.742188-2.871094.503906-4.960938 2.996094-4.960938 5.90625v.132812c0 33.351563-20.574219 65.441406-50.03125 78.03125-.984375.421875-1.976562.8125-2.96875 1.1875h-.671875v.25c-7.589844 2.789063-15.613281 4.214844-23.699218 4.21875h-16.445313c-8.089844 0-16.109375-1.429687-23.703125-4.21875v-.25h-.667969c-1-.375-1.988281-.765625-2.972656-1.1875-10.425781-4.550781-19.746094-11.289062-27.335937-19.757812-14.4375-15.996094-22.507813-36.730469-22.679688-58.273438v-.132812c0-2.914063-2.097656-5.410156-4.972656-5.910156-.152344-.027344-.308594-.058594-.507813-.097657-7.140625-1.507812-12.253906-7.808593-12.261719-15.109375zm13.84375 107.199219c-8.996093-12.785156-11.859374-28.898437-7.824218-44l3.820312-14.367187c4.257813 14.363281 11.664063 27.597656 21.679688 38.738281 7.867187 8.738281 17.328125 15.894531 27.878906 21.074219v17.910156l-8.015625 2.71875c-15.121094-1.570313-28.816406-9.625-37.539063-22.074219zm-49.0625 92.179687c-.007812-16.789062 10.695313-31.71875 26.597657-37.097656l37.902343-12.84375 67.96875 66.085938v45.886718h-132.46875zm144.460938 62.03125v-45.707031l68.144531-66.257812 16.824219 5.699219c.386719 1.117187.9375 2.167968 1.632812 3.125 8.464844 11.523437 17.609376 22.769531 27.230469 33.492187l-69.644531 69.648437zm188.078125-18.402343c-12.746094-9.375-24.964844-19.449219-36.605469-30.167969-2.367187-2.179688-6.03125-2.101562-8.308594.171875l-64.199218 64.210937c-1.367188 1.367188-1.988282 3.304688-1.675782 5.210938l1.445313 8.828125-11-.199219c-1.695313-.042968-3.328125.644532-4.480469 1.886719-1.160156 1.230469-1.746094 2.898437-1.613281 4.585937l.789063 9.957032-9.535157-1.027344c-1.804687-.191406-3.597656.441406-4.882812 1.722656l-10.332031 10.320313-14-2.800781-2.800782-14.007813 105.488282-105.492187c2.277343-2.273438 2.351562-5.9375.171874-8.304688-10.722656-11.640625-20.792968-23.859375-30.167968-36.605469l66.300781-51.566406c6.078125 8.601563 21.535156 29.832031 35.855469 44.148437 13.515625 13.515626 31.464844 26.402344 41.058594 32.941407zm0 0"/><path d="m330.621094 300.050781-11.128906-12.71875c-2.09375-2.394531-5.691407-2.738281-8.199219-.785156l-15.171875 11.8125c-2.285156 1.78125-2.972656 4.945313-1.628906 7.515625l18.542968 35.402344c.566406 1.082031 1.449219 1.964844 2.53125 2.527344l35.410156 18.550781c2.570313 1.347656 5.738282.660156 7.519532-1.632813l11.800781-15.179687c1.949219-2.507813 1.605469-6.105469-.785156-8.199219l-12.726563-11.128906c-9.289062-8.132813-18.03125-16.871094-26.164062-26.164063zm26.722656 42.601563-5.246094 6.75-29.304687-15.351563-15.347657-29.300781 6.746094-5.25 7.402344 8.457031c8.480469 9.695313 17.601562 18.816407 27.296875 27.300781zm0 0"/></g></svg>